<?xml version="1.0" encoding="UTF-8"?>
<!-- Generator: Adobe Illustrator 19.0.0, SVG Export Plug-In . SVG Version: 6.00 Build 0)  -->
<!DOCTYPE svg PUBLIC "-//W3C//DTD SVG 1.1//EN" "http://www.w3.org/Graphics/SVG/1.1/DTD/svg11.dtd">
<svg version="1.1" id="Layer_1" xmlns="http://www.w3.org/2000/svg" xmlns:xlink="http://www.w3.org/1999/xlink" x="0px" y="0px" viewBox="-1103.7 721 305.9 62.1" style="enable-background:new -1103.7 721 305.9 62.1;" xml:space="preserve">
<style type="text/css">
	.st0{fill:#000000;}
</style>
<path class="st0" d="M-1083.1,721c0,0-0.5,1.7-3,1.6c0,2.3,0,3.2,0,3.2s2.5,0.2,3.4-1.4C-1081.9,722.9-1083.1,721-1083.1,721z"/>
<path class="st0" d="M-1095.7,733.9c0,0-1.3-1.6-3-1s-1.6,1.3-2.5,1.5c-0.8,0.2-2.2,0.1-2.5-0.3c0,0,2,2.3,3.9,1.1  C-1097.8,734-1097.6,733.1-1095.7,733.9z"/>
<path class="st0" d="M-1093,762.5c0,0,2.4,2.7,3.6,3.5c0,0,1.2,2.6,1.2,4.1s-0.1,2.8-1.4,5.2c-1.3,2.4-1.9,2.4-1.9,2.4  s-0.9-0.7-1.9-0.5c0,0,3.1-1.8,2.6-4.9c-0.5-3.1-1.6-2.9-2.2-5.9C-1093.7,763.4-1093.5,763.7-1093,762.5z"/>
<path class="st0" d="M-1095.3,778.3c0,0-5.2,0.2-5.3,4.1c0,0,1.4,0.2,4,0.2C-1096.6,782.6-1098,780.2-1095.3,778.3z"/>
<path class="st0" d="M-1057.8,764.6c-0.5-0.6-1.1-1.2-1.8-1.9c-2.6-2.4-4.6-3-8.8-2.5c-2.6,0.3-4.4,1.1-6,1.8  c-0.8,0.4-1.6,0.7-2.4,1c-1.9,0.6-2.8-0.7-3.3-1.4c-0.1,0-0.5,0-0.5,0s-1,0.5-0.5,0.9c0.5,0.5,2.2,2.8,6.2,2.2  c2.3-0.3,10.6-1.6,10.6-1.6s-3.7,1.4-2.2,5.5c0.5,1.3,3.1,2.5,4.1,4s0.8,3.5,0.2,4.4s-2.4,1.4-2.4,1.4s-2.4-1.1-4.1,0.9  s-0.7,3.1,0,3.1s5.3-0.1,6.3-0.1s1.6-0.5,2.1-1.1c0.5-0.6,0.7-2.8,0.7-2.8s1.3,0.6,1.3,1.4c0.4-1.1,0.1-1.5,0-2.6  c-0.1-1.1,0.2-2.2,0.8-2.8c0.6-0.6,1.8-0.7,2.2-1.5c0.4-0.7-0.2-0.6-0.6-0.9c-0.4-0.2-1.2-1-0.8-1.6c0.4-0.6,1.7-1.1,1.8-1.9  c0-0.4,0.2-0.4,0.3-0.9C-1055.9,766.7-1056.8,765.7-1057.8,764.6z M-1038.3,770.7c0.1-0.6,2-1.3,2-1.3s-0.6-1.7-1.2-2.2  c-0.6-0.5-1.7-0.1-2.5-0.8c-0.7-0.7-3.4-2-3.7-8.3c-0.4-6.3-0.2-6-0.2-6s6.5-3.7,6.2-11.2c-0.2-7.5-9.3-6.9-12.4-4.7  s-10.7,6.2-13.3-0.9c-0.8-2.1,3.1-3.2,3.1-3.2s2.2,0.1,3.4-1c1.2-1.1,0.5-1.4,1.4-1.7c1-0.4,1.9-0.1,3.1-1.4  c1.2-1.2,1.6-3.6,1.6-3.6s-1.1,1.8-2.5,1.7c-1.4-0.1-3.7-1.5-5.4-1c-1.7,0.5-2.3,1.1-3,2.3c-0.7,1.2-0.6,1.6-1.5,2.2  c-0.8,0.6-6,7.8,2.4,11.5c5.5,1.7,10.2-2.1,11.4-2.8c1.2-0.7,2.4-1.5,4.7-1.5s4.7,1.6,4.8,3.8c0.1,2.2-1.4,5-4.9,5.8  c-0.7,0-1.9,0.4-1.9,0.4s-2-2.7-11-0.7c-8.9,2-18,3.2-20.2-3.8c-0.6-6.3,4,0.7,4,0.7s-0.1-6.2-2.1-6.2c-1.1,0-2.4-1-2.4-1  s0.2-1.2,0.8-1.2c0.6,0,2.2,1.7,2.2,1.7s0.5-4.7-1.3-5.8c-1-0.6-1.4-1.3-1.6-1.7c0.7-0.1,1.5-0.3,2-0.8c1.2-1.1,1.8-2.3,1.9-3.7  c0.1-1.4-0.4-0.6-1.2-0.1s-2.4,0.7-3.6,0.7s-2.5-0.5-2.5-0.5s-0.8,1.1-1.8,1.4c-1,0.2-3.3,0.1-4.9,0c-1.7-0.1-2.7-1-3.9-0.6  c-1.2,0.4-1.6,1.2-3.1,1.6c-1.6,0.4-2.2,0-3.3-0.1c-1.1-0.1-2.4-0.1-2.7,0.7c-0.2,0.9-0.6,2-0.2,3.1s0.6,1.5,2.4,1.4  c1.8-0.1,3.9,0,4.7,1.1c0.8,1.1,0.8,2.3,0.6,3.1c-0.2,0.7-1.8,0.5-2.7,0.3c-0.8-0.1-2-0.6-2.5,0.2c-0.5,0.9-1,3.6,0.7,3  c1.7-0.6,6-0.3,6.6-0.3c0.6,0,0.6,0,0.6,0s-6.1,4.6-6,10.4c0,8.7,7.7,14.4,7.7,14.4s-1.3-4.1-1.1-7.6c0.2-3.6,1.9-5.2,1.9-5.2  s-1.3,4.1-0.1,9.5s2.7,9.9,1.2,13.3c-1.4,3.4-2.6,4.8-3.5,4.8c-0.9,0-2.2-0.6-2.9-0.2c-0.7,0.4-1.4,1.4-1.4,2.2c0,0.9-0.2,2,0.7,2  c1,0,3.4-0.1,4.6-0.1c1.2,0,2.3-0.2,3.1-0.9c0.8-0.6,1.2-3.3,1.2-3.3s1,0.2,1,0.9l0.5-1.6c-0.2-0.9-0.1-1.2,0.6-2.6  c0.7-1.4,0.8-1.4,1.9-2.5c1.1-1.1-0.7-0.9-0.7-2.2c0-1.3,0.5-1.8,1.1-3.2c0.6-1.4-0.1-1.1-0.6-1.5c-0.5-0.4,0.3-0.6,0.4-1.5  c0.1-1.6-1.8-2.8-1.8-2.8c4.2-0.7,4.5-2.2,4.5-2.2c-5.4-1.4-5.1-5.8-5.1-5.8c5.3,0.4,6.8-2.2,6.8-2.2c-2.9,0.6-4.2-2.7-4.2-2.7  c0.8-0.8,0.5-3.2,0.5-3.2c-1.9-4-5.9-1.2-5.9-1.2c1.1-2.5,5.3-2.4,6.7,0.3c1.4,2.6,0.3,4,0.3,4c1.4,2.5,4.6,1.9,4.6,1.9  c-2.7,5.4-7.1,4.4-7.1,4.4c1.4,3.9,4.9,3.3,4.9,3.3c-0.1,2.1-0.8,2.9-1.5,3.3c0.4,0.3,1,0.5,2,0.2c0.7-0.2,1.5-0.5,2.3-0.9  c1.7-0.7,3.6-1.6,6.3-1.9c3.2-0.4,5.3-0.1,7.2,0.9c0.1-0.4,0.4-1,0-1.7c-0.2-0.5-0.5-1,0.1-0.7l0.4,0.5c0,0,1.3,1.7,1.5,3.5  c0.1,0.1,0.3,0.3,0.4,0.4c0.7,0.7,1.3,1.3,1.9,1.9c1,1.2,2,2.3,3.6,3.2c0.5,0.3,1.1,0.6,1.9,1c1.9,1,4.9,0.5,6.4,1.2  c1.6,0.7,2.9,3.1,3.6,4.8c0.7,1.7,0.7,3.2,0.2,4.2s-0.7,1.6-1.3,1.6s-1-0.5-1.9-0.5c-1,0-1.4,0.5-1.8,1.4c-0.4,0.9-0.4,2.5,0.1,2.5  s6-0.5,6.7-0.5s1.2-0.9,1.3-1.7c0.1-0.9,0-2,0-2.6c0-0.6,1.2,0.4,1.2,0.4s0.2-1.6-0.4-3.3C-1037.7,773.3-1038.5,771.3-1038.3,770.7z   M-1087.3,730.4c-1.1,0.1-1.8,0.4-2.3-0.1s-0.6-0.9-1.2-0.9s-1.2-0.1-1.2-0.1s0.2-0.2,1.3-0.7c0,0,2.4,0.2,3.4,0.4  c1,0.1,1.3,0.2,1.3,0.2S-1086.2,730.3-1087.3,730.4z"/>
<g>
	<path class="st0" d="M-1006.4,745.4c0,0.9-0.1,1.7-0.4,2.4c-0.3,0.7-0.7,1.3-1.2,1.7c-0.5,0.5-1.1,0.8-1.9,1.1   c-0.7,0.2-1.5,0.4-2.4,0.4h-7.9v-19.5h7.6c1.8,0,3.3,0.5,4.3,1.4c1.1,1,1.6,2.3,1.6,3.9c0,0.5-0.1,1-0.2,1.5   c-0.2,0.5-0.4,0.8-0.6,1.2c-0.2,0.4-0.5,0.7-0.8,0.9c-0.3,0.3-0.6,0.4-1,0.6c0.4,0.1,0.8,0.4,1.1,0.6c0.3,0.3,0.7,0.6,0.9,0.9   c0.3,0.4,0.5,0.8,0.7,1.3C-1006.5,744.2-1006.4,744.8-1006.4,745.4z M-1009.7,736.8c0-0.9-0.3-1.6-0.9-2.1   c-0.6-0.5-1.4-0.7-2.3-0.7h-4.4v5.6h4.4c1,0,1.7-0.2,2.3-0.7C-1010,738.4-1009.7,737.7-1009.7,736.8z M-1009.4,745.3   c0-0.9-0.3-1.6-0.8-2.1s-1.3-0.8-2.4-0.8h-4.7v6h4.7c1,0,1.8-0.3,2.4-0.8C-1009.6,746.9-1009.4,746.1-1009.4,745.3z"/>
	<path class="st0" d="M-1002.5,750.9v-19.5h3v19.5H-1002.5z"/>
	<path class="st0" d="M-984.2,750.9l-4.1-8.2h-3.7v8.2h-3v-19.5h7.6c0.9,0,1.8,0.1,2.5,0.4c0.7,0.3,1.4,0.7,1.9,1.2s0.9,1.1,1.2,1.8   c0.3,0.7,0.4,1.5,0.4,2.3c0,1.4-0.4,2.5-1.1,3.4c-0.7,0.9-1.7,1.5-2.8,1.8l4.5,8.6H-984.2L-984.2,750.9z M-984.3,737.1   c0-1-0.3-1.7-0.9-2.3c-0.6-0.5-1.4-0.8-2.4-0.8h-4.4v6.1h4.4c1,0,1.8-0.3,2.4-0.8C-984.7,738.8-984.3,738.1-984.3,737.1z"/>
	<path class="st0" d="M-963.3,750.9v-13.1l-4.5,9.5h-2.2l-4.6-9.5v13.1h-3v-19.5h3l5.7,12.2l5.6-12.2h3v19.5H-963.3z"/>
	<path class="st0" d="M-955.8,750.9v-19.5h3v19.5H-955.8z"/>
	<path class="st0" d="M-936.3,750.9l-9-13.8v13.8h-3v-19.5h2.7l9,13.7v-13.7h3v19.5H-936.3z"/>
	<path class="st0" d="M-915.6,743.3c0,1.3-0.1,2.3-0.4,3.2s-0.7,1.6-1.4,2.3c-0.8,0.8-1.6,1.4-2.5,1.7c-0.9,0.3-1.9,0.5-2.9,0.5   s-2-0.2-2.8-0.5c-0.9-0.4-1.6-0.9-2.3-1.5c-0.5-0.5-0.8-1-1.1-1.5c-0.3-0.5-0.4-1.1-0.6-1.7c-0.1-0.6-0.2-1.3-0.2-2.1s0-1.6,0-2.5   s0-1.8,0-2.5c0-0.8,0.1-1.4,0.2-2.1c0.1-0.6,0.3-1.2,0.6-1.7c0.3-0.5,0.6-1,1.1-1.5c0.7-0.7,1.4-1.2,2.3-1.6   c0.8-0.4,1.8-0.5,2.8-0.5s2,0.2,2.8,0.5s1.5,0.8,2.1,1.3c0.6,0.5,1.1,1.2,1.4,1.9c0.4,0.7,0.6,1.5,0.8,2.4h-3   c-0.3-1.1-0.7-1.9-1.4-2.5c-0.7-0.6-1.6-0.9-2.7-0.9c-0.6,0-1.1,0.1-1.6,0.3c-0.5,0.2-0.9,0.5-1.3,0.9c-0.2,0.3-0.4,0.5-0.6,0.8   c-0.2,0.3-0.3,0.7-0.4,1.1c-0.1,0.5-0.1,1-0.2,1.6c0,0.7-0.1,1.5-0.1,2.5s0,1.8,0.1,2.5c0,0.7,0.1,1.2,0.2,1.7s0.2,0.8,0.4,1.1   c0.2,0.3,0.4,0.6,0.6,0.8c0.3,0.4,0.8,0.7,1.3,0.9c0.5,0.2,1,0.3,1.6,0.3c0.6,0,1.2-0.1,1.8-0.4c0.5-0.2,1-0.6,1.4-1   c0.4-0.4,0.6-0.9,0.8-1.4c0.1-0.5,0.2-1.1,0.2-1.7v-1.1h-4.2v-2.5h7.1L-915.6,743.3L-915.6,743.3z"/>
	<path class="st0" d="M-900.8,750.9v-8.5h-7.9v8.5h-3v-19.5h3v8.3h7.9v-8.3h3v19.5H-900.8z"/>
	<path class="st0" d="M-882.1,750.9l-1.3-3.9h-7.7l-1.3,3.9h-3.2l7.2-19.5h2.4l7.2,19.5H-882.1z M-887.2,735.8l-3,8.7h6   L-887.2,735.8z"/>
	<path class="st0" d="M-862.4,750.9v-13.1l-4.5,9.5h-2.2l-4.6-9.5v13.1h-3v-19.5h3l5.7,12.2l5.6-12.2h3v19.5H-862.4z"/>
	<path class="st0" d="M-835.6,745.1c-0.2,1-0.5,1.8-0.9,2.6c-0.4,0.7-0.9,1.4-1.5,1.9s-1.3,0.9-2.1,1.2c-0.8,0.3-1.6,0.4-2.5,0.4   c-1,0-2-0.2-2.8-0.5c-0.9-0.4-1.6-0.9-2.3-1.5c-0.5-0.5-0.8-1-1.1-1.5c-0.3-0.5-0.4-1.1-0.6-1.7c-0.1-0.6-0.2-1.3-0.2-2.1   c0-0.8,0-1.6,0-2.5c0-0.9,0-1.8,0-2.5c0-0.8,0.1-1.4,0.2-2.1c0.1-0.6,0.3-1.2,0.6-1.7c0.3-0.5,0.6-1,1.1-1.5   c0.7-0.7,1.4-1.2,2.3-1.6c0.9-0.4,1.8-0.5,2.8-0.5c1.8,0,3.3,0.5,4.6,1.5c1.2,1,2,2.5,2.4,4.5h-3c-0.2-1-0.7-1.8-1.3-2.4   c-0.7-0.6-1.5-0.9-2.6-0.9c-0.6,0-1.1,0.1-1.6,0.3c-0.5,0.2-0.9,0.5-1.3,0.9c-0.2,0.3-0.4,0.5-0.6,0.8s-0.3,0.7-0.4,1.1   c-0.1,0.5-0.1,1-0.2,1.7c0,0.7-0.1,1.5-0.1,2.5s0,1.8,0.1,2.5c0,0.7,0.1,1.2,0.2,1.7c0.1,0.5,0.2,0.8,0.4,1.1s0.3,0.6,0.6,0.8   c0.3,0.4,0.8,0.7,1.3,0.9c0.5,0.2,1,0.3,1.6,0.3c1.1,0,2-0.3,2.6-0.9c0.7-0.6,1.1-1.4,1.3-2.4L-835.6,745.1L-835.6,745.1z"/>
	<path class="st0" d="M-832.2,750.9v-19.5h3v19.5H-832.2z"/>
	<path class="st0" d="M-818.1,734v16.9h-3V734h-5.4v-2.7h13.7v2.7H-818.1z"/>
	<path class="st0" d="M-803.5,742.9v8h-3v-8l-5.9-11.5h3.2l4.1,8.6l4.1-8.6h3.2L-803.5,742.9z"/>
	<path class="st0" d="M-1007.8,768.7c0,0.9-0.2,1.7-0.5,2.4c-0.3,0.7-0.8,1.4-1.3,1.9c-0.6,0.5-1.2,0.9-2,1.2s-1.6,0.4-2.4,0.4   c-0.9,0-1.7-0.1-2.4-0.4c-0.8-0.3-1.4-0.7-2-1.2c-0.5-0.5-1-1.1-1.3-1.9c-0.3-0.7-0.5-1.5-0.5-2.4v-11.4h2.6v11.3   c0,1.2,0.3,2.1,1,2.7c0.6,0.7,1.5,1,2.6,1s1.9-0.3,2.6-1c0.7-0.7,1-1.6,1-2.7v-11.3h2.6L-1007.8,768.7L-1007.8,768.7z"/>
	<path class="st0" d="M-996.4,774.5V767c0-1-0.2-1.6-0.7-2.1c-0.5-0.4-1.1-0.7-1.8-0.7s-1.3,0.2-1.8,0.7c-0.5,0.4-0.7,1.1-0.7,2.1   v7.5h-2.5v-12.3h2.4v1.2c0.4-0.5,0.9-0.8,1.5-1s1.2-0.3,1.8-0.3s1.2,0.1,1.7,0.3c0.5,0.2,0.9,0.5,1.3,0.8c0.5,0.5,0.8,1,1,1.6   c0.2,0.6,0.3,1.2,0.3,1.9v7.8H-996.4z"/>
	<path class="st0" d="M-990.2,759.8v-2.6h2.6v2.6H-990.2z M-990.1,774.5v-12.3h2.5v12.3H-990.1z"/>
	<path class="st0" d="M-979,774.5h-2l-4.5-12.3h2.6l2.9,8.6l2.9-8.6h2.6L-979,774.5z"/>
	<path class="st0" d="M-970.8,769.1c0,1.1,0.3,1.9,0.8,2.5c0.5,0.6,1.3,0.9,2.3,0.9c0.7,0,1.3-0.1,1.7-0.3c0.4-0.2,0.9-0.5,1.3-1   l1.6,1.5c-0.3,0.3-0.6,0.6-1,0.8c-0.3,0.2-0.7,0.4-1,0.6c-0.4,0.2-0.8,0.3-1.2,0.4s-0.9,0.1-1.4,0.1c-0.8,0-1.5-0.1-2.2-0.3   c-0.7-0.2-1.3-0.6-1.7-1.1c-0.5-0.5-0.9-1.1-1.2-2c-0.3-0.8-0.4-1.8-0.4-3c0-2,0.5-3.5,1.4-4.6c0.9-1.1,2.2-1.6,3.8-1.6   c0.8,0,1.6,0.1,2.2,0.4c0.6,0.3,1.2,0.7,1.6,1.2c0.4,0.5,0.8,1.1,1,1.9c0.2,0.7,0.4,1.5,0.4,2.4v1.1L-970.8,769.1L-970.8,769.1z    M-965.2,767.4c0-0.4,0-0.7-0.1-0.9c0-0.2-0.1-0.5-0.3-0.8c-0.2-0.5-0.5-0.8-0.9-1.1s-0.9-0.4-1.5-0.4s-1.1,0.1-1.5,0.4   s-0.7,0.7-0.9,1.1c-0.1,0.3-0.2,0.5-0.2,0.8c0,0.2-0.1,0.5-0.1,0.9H-965.2z"/>
	<path class="st0" d="M-952.8,765.1c-0.3-0.3-0.5-0.5-0.8-0.6s-0.6-0.2-1-0.2c-0.7,0-1.3,0.2-1.7,0.7c-0.5,0.5-0.7,1.2-0.7,2v7.5   h-2.5v-12.3h2.4v1.3c0.3-0.4,0.8-0.8,1.4-1.1c0.6-0.3,1.2-0.4,1.9-0.4c0.6,0,1.1,0.1,1.6,0.3s0.9,0.5,1.3,0.9L-952.8,765.1z"/>
	<path class="st0" d="M-940.1,770.8c0,0.6-0.1,1.2-0.4,1.7s-0.6,0.9-1.1,1.2c-0.5,0.3-1,0.6-1.6,0.7c-0.6,0.2-1.3,0.2-2,0.2   c-1,0-1.9-0.1-2.8-0.3c-0.9-0.2-1.6-0.7-2.4-1.4l1.6-1.6c0.5,0.5,1.1,0.9,1.7,1c0.6,0.2,1.2,0.3,1.9,0.3c0.8,0,1.4-0.1,1.9-0.4   s0.8-0.7,0.8-1.3c0-0.4-0.1-0.8-0.4-1c-0.3-0.3-0.7-0.4-1.3-0.4l-2-0.2c-1.2-0.1-2.1-0.4-2.7-1c-0.6-0.5-0.9-1.4-0.9-2.4   c0-0.6,0.1-1.1,0.4-1.6c0.2-0.5,0.6-0.9,1-1.2c0.4-0.3,0.9-0.6,1.5-0.7c0.6-0.2,1.2-0.3,1.8-0.3c0.9,0,1.8,0.1,2.5,0.3   c0.8,0.2,1.4,0.6,2,1.1l-1.5,1.6c-0.4-0.3-0.8-0.6-1.4-0.7c-0.5-0.1-1.1-0.2-1.7-0.2c-0.7,0-1.3,0.1-1.7,0.4   c-0.4,0.3-0.6,0.7-0.6,1.1c0,0.4,0.1,0.7,0.4,0.9c0.2,0.3,0.7,0.4,1.3,0.5l1.9,0.2c1.2,0.1,2.1,0.4,2.7,1   C-940.4,768.8-940.1,769.7-940.1,770.8z"/>
	<path class="st0" d="M-937.1,759.8v-2.6h2.6v2.6H-937.1z M-937.1,774.5v-12.3h2.5v12.3H-937.1z"/>
	<path class="st0" d="M-927,774.5c-0.6,0-1.1-0.1-1.5-0.3s-0.8-0.4-1-0.8c-0.3-0.3-0.5-0.7-0.6-1.1c-0.1-0.4-0.2-0.8-0.2-1.3v-6.8   h-1.4v-1.9h1.4v-3.7h2.5v3.7h2.4v1.9h-2.4v6.6c0,0.5,0.1,0.8,0.3,1.1c0.2,0.3,0.6,0.4,1,0.4h1v2.1   C-925.5,774.5-927,774.5-927,774.5z"/>
	<path class="st0" d="M-918.5,777c-0.2,0.6-0.5,1.2-0.9,1.5c-0.3,0.3-0.7,0.6-1.2,0.7c-0.4,0.1-0.9,0.2-1.4,0.2h-1v-2.2h0.6   c0.5,0,0.9-0.1,1.1-0.3c0.2-0.2,0.5-0.5,0.6-1l0.7-1.9l-4.3-11.7h2.6l2.9,8.6l2.9-8.6h2.6L-918.5,777z"/>
</g>
</svg>