<?xml version="1.0" encoding="UTF-8"?>
<!-- Generator: Adobe Illustrator 19.0.0, SVG Export Plug-In . SVG Version: 6.00 Build 0)  -->
<!DOCTYPE svg PUBLIC "-//W3C//DTD SVG 1.1//EN" "http://www.w3.org/Graphics/SVG/1.1/DTD/svg11.dtd">
<svg version="1.1" id="Layer_1" xmlns="http://www.w3.org/2000/svg" xmlns:xlink="http://www.w3.org/1999/xlink" x="0px" y="0px" viewBox="-1103.7 721 70.9 62.1" style="enable-background:new -1103.7 721 305.9 62.1;" xml:space="preserve">
<style type="text/css">
	.st0{fill:#000000;}
</style>
<path class="st0" d="M-1083.1,721c0,0-0.5,1.7-3,1.6c0,2.3,0,3.2,0,3.2s2.5,0.2,3.4-1.4C-1081.9,722.9-1083.1,721-1083.1,721z"/>
<path class="st0" d="M-1095.7,733.9c0,0-1.3-1.6-3-1s-1.6,1.3-2.5,1.5c-0.8,0.2-2.2,0.1-2.5-0.3c0,0,2,2.3,3.9,1.1  C-1097.8,734-1097.6,733.1-1095.7,733.9z"/>
<path class="st0" d="M-1093,762.5c0,0,2.4,2.7,3.6,3.5c0,0,1.2,2.6,1.2,4.1s-0.1,2.8-1.4,5.2c-1.3,2.4-1.9,2.4-1.9,2.4  s-0.9-0.7-1.9-0.5c0,0,3.1-1.8,2.6-4.9c-0.5-3.1-1.6-2.9-2.2-5.9C-1093.7,763.4-1093.5,763.7-1093,762.5z"/>
<path class="st0" d="M-1095.3,778.3c0,0-5.2,0.2-5.3,4.1c0,0,1.4,0.2,4,0.2C-1096.6,782.6-1098,780.2-1095.3,778.3z"/>
<path class="st0" d="M-1057.8,764.6c-0.5-0.6-1.1-1.2-1.8-1.9c-2.6-2.4-4.6-3-8.8-2.5c-2.6,0.3-4.4,1.1-6,1.8  c-0.8,0.4-1.6,0.7-2.4,1c-1.9,0.6-2.8-0.7-3.3-1.4c-0.1,0-0.5,0-0.5,0s-1,0.5-0.5,0.9c0.5,0.5,2.2,2.8,6.2,2.2  c2.3-0.3,10.6-1.6,10.6-1.6s-3.7,1.4-2.2,5.5c0.5,1.3,3.1,2.5,4.1,4s0.8,3.5,0.2,4.4s-2.4,1.4-2.4,1.4s-2.4-1.1-4.1,0.9  s-0.7,3.1,0,3.1s5.3-0.1,6.3-0.1s1.6-0.5,2.1-1.1c0.5-0.6,0.7-2.8,0.7-2.8s1.3,0.6,1.3,1.4c0.4-1.1,0.1-1.5,0-2.6  c-0.1-1.1,0.2-2.2,0.8-2.8c0.6-0.6,1.8-0.7,2.2-1.5c0.4-0.7-0.2-0.6-0.6-0.9c-0.4-0.2-1.2-1-0.8-1.6c0.4-0.6,1.7-1.1,1.8-1.9  c0-0.4,0.2-0.4,0.3-0.9C-1055.9,766.7-1056.8,765.7-1057.8,764.6z M-1038.3,770.7c0.1-0.6,2-1.3,2-1.3s-0.6-1.7-1.2-2.2  c-0.6-0.5-1.7-0.1-2.5-0.8c-0.7-0.7-3.4-2-3.7-8.3c-0.4-6.3-0.2-6-0.2-6s6.5-3.7,6.2-11.2c-0.2-7.5-9.3-6.9-12.4-4.7  s-10.7,6.2-13.3-0.9c-0.8-2.1,3.1-3.2,3.1-3.2s2.2,0.1,3.4-1c1.2-1.1,0.5-1.4,1.4-1.7c1-0.4,1.9-0.1,3.1-1.4  c1.2-1.2,1.6-3.6,1.6-3.6s-1.1,1.8-2.5,1.7c-1.4-0.1-3.7-1.5-5.4-1c-1.7,0.5-2.3,1.1-3,2.3c-0.7,1.2-0.6,1.6-1.5,2.2  c-0.8,0.6-6,7.8,2.4,11.5c5.5,1.7,10.2-2.1,11.4-2.8c1.2-0.7,2.4-1.5,4.7-1.5s4.7,1.6,4.8,3.8c0.1,2.2-1.4,5-4.9,5.8  c-0.7,0-1.9,0.4-1.9,0.4s-2-2.7-11-0.7c-8.9,2-18,3.2-20.2-3.8c-0.6-6.3,4,0.7,4,0.7s-0.1-6.2-2.1-6.2c-1.1,0-2.4-1-2.4-1  s0.2-1.2,0.8-1.2c0.6,0,2.2,1.7,2.2,1.7s0.5-4.7-1.3-5.8c-1-0.6-1.4-1.3-1.6-1.7c0.7-0.1,1.5-0.3,2-0.8c1.2-1.1,1.8-2.3,1.9-3.7  c0.1-1.4-0.4-0.6-1.2-0.1s-2.4,0.7-3.6,0.7s-2.5-0.5-2.5-0.5s-0.8,1.1-1.8,1.4c-1,0.2-3.3,0.1-4.9,0c-1.7-0.1-2.7-1-3.9-0.6  c-1.2,0.4-1.6,1.2-3.1,1.6c-1.6,0.4-2.2,0-3.3-0.1c-1.1-0.1-2.4-0.1-2.7,0.7c-0.2,0.9-0.6,2-0.2,3.1s0.6,1.5,2.4,1.4  c1.8-0.1,3.9,0,4.7,1.1c0.8,1.1,0.8,2.3,0.6,3.1c-0.2,0.7-1.8,0.5-2.7,0.3c-0.8-0.1-2-0.6-2.5,0.2c-0.5,0.9-1,3.6,0.7,3  c1.7-0.6,6-0.3,6.6-0.3c0.6,0,0.6,0,0.6,0s-6.1,4.6-6,10.4c0,8.7,7.7,14.4,7.7,14.4s-1.3-4.1-1.1-7.6c0.2-3.6,1.9-5.2,1.9-5.2  s-1.3,4.1-0.1,9.5s2.7,9.9,1.2,13.3c-1.4,3.4-2.6,4.8-3.5,4.8c-0.9,0-2.2-0.6-2.9-0.2c-0.7,0.4-1.4,1.4-1.4,2.2c0,0.9-0.2,2,0.7,2  c1,0,3.4-0.1,4.6-0.1c1.2,0,2.3-0.2,3.1-0.9c0.8-0.6,1.2-3.3,1.2-3.3s1,0.2,1,0.9l0.5-1.6c-0.2-0.9-0.1-1.2,0.6-2.6  c0.7-1.4,0.8-1.4,1.9-2.5c1.1-1.1-0.7-0.9-0.7-2.2c0-1.3,0.5-1.8,1.1-3.2c0.6-1.4-0.1-1.1-0.6-1.5c-0.5-0.4,0.3-0.6,0.4-1.5  c0.1-1.6-1.8-2.8-1.8-2.8c4.2-0.7,4.5-2.2,4.5-2.2c-5.4-1.4-5.1-5.8-5.1-5.8c5.3,0.4,6.8-2.2,6.8-2.2c-2.9,0.6-4.2-2.7-4.2-2.7  c0.8-0.8,0.5-3.2,0.5-3.2c-1.9-4-5.9-1.2-5.9-1.2c1.1-2.5,5.3-2.4,6.7,0.3c1.4,2.6,0.3,4,0.3,4c1.4,2.5,4.6,1.9,4.6,1.9  c-2.7,5.4-7.1,4.4-7.1,4.4c1.4,3.9,4.9,3.3,4.9,3.3c-0.1,2.1-0.8,2.9-1.5,3.3c0.4,0.3,1,0.5,2,0.2c0.7-0.2,1.5-0.5,2.3-0.9  c1.7-0.7,3.6-1.6,6.3-1.9c3.2-0.4,5.3-0.1,7.2,0.9c0.1-0.4,0.4-1,0-1.7c-0.2-0.5-0.5-1,0.1-0.7l0.4,0.5c0,0,1.3,1.7,1.5,3.5  c0.1,0.1,0.3,0.3,0.4,0.4c0.7,0.7,1.3,1.3,1.9,1.9c1,1.2,2,2.3,3.6,3.2c0.5,0.3,1.1,0.6,1.9,1c1.9,1,4.9,0.5,6.4,1.2  c1.6,0.7,2.9,3.1,3.6,4.8c0.7,1.7,0.7,3.2,0.2,4.2s-0.7,1.6-1.3,1.6s-1-0.5-1.9-0.5c-1,0-1.4,0.5-1.8,1.4c-0.4,0.9-0.4,2.5,0.1,2.5  s6-0.5,6.7-0.5s1.2-0.9,1.3-1.7c0.1-0.9,0-2,0-2.6c0-0.6,1.2,0.4,1.2,0.4s0.2-1.6-0.4-3.3C-1037.7,773.3-1038.5,771.3-1038.3,770.7z   M-1087.3,730.4c-1.1,0.1-1.8,0.4-2.3-0.1s-0.6-0.9-1.2-0.9s-1.2-0.1-1.2-0.1s0.2-0.2,1.3-0.7c0,0,2.4,0.2,3.4,0.4  c1,0.1,1.3,0.2,1.3,0.2S-1086.2,730.3-1087.3,730.4z"/>
<g>
	
</g>
</svg>
