<svg id="svg" version="1.1" width="400" height="399.84012789768184" viewBox="0 0 400 399.84012789768184" xmlns="http://www.w3.org/2000/svg" xmlns:xlink="http://www.w3.org/1999/xlink"><g id="svgg"><path id="path0" d="M344.124 190.958 C 344.077 204.366,344.036 206.527,343.811 207.250 C 342.718 210.768,341.160 211.241,330.667 211.247 C 318.703 211.253,318.583 211.154,318.583 201.333 C 318.583 192.054,318.068 192.417,331.250 192.417 C 337.270 192.417,339.932 192.474,340.375 192.612 L 341.000 192.806 341.000 190.091 L 341.000 187.375 340.518 187.279 C 337.797 186.734,325.524 186.704,322.257 187.233 C 314.505 188.490,312.337 191.701,312.334 201.929 C 312.331 214.347,315.322 216.731,330.917 216.736 C 342.692 216.739,346.761 215.409,348.766 210.902 C 349.840 208.489,349.878 207.845,349.951 190.875 L 350.018 175.500 347.098 175.500 L 344.178 175.500 344.124 190.958 M64.667 186.517 C 58.228 186.904,54.783 188.110,52.956 190.619 C 50.790 193.594,50.679 194.708,50.672 213.625 L 50.667 227.667 53.583 227.667 L 56.500 227.667 56.505 213.125 C 56.513 190.868,55.698 192.320,68.333 192.056 C 81.327 191.784,82.006 192.194,82.261 200.454 C 82.523 208.935,81.875 210.227,77.068 210.817 C 74.006 211.193,62.389 211.023,60.208 210.571 L 59.667 210.458 59.667 213.126 C 59.667 216.256,59.328 215.896,62.536 216.181 C 65.166 216.415,76.248 216.289,78.500 216.000 C 85.934 215.045,88.333 211.466,88.333 201.333 C 88.333 192.283,86.493 188.817,80.917 187.368 C 77.486 186.476,71.004 186.137,64.667 186.517 M90.500 201.417 L 90.500 216.333 93.500 216.333 L 96.500 216.333 96.500 201.417 L 96.500 186.500 93.500 186.500 L 90.500 186.500 90.500 201.417 M111.339 186.695 C 106.628 187.189,103.259 188.742,101.730 191.122 C 99.507 194.582,99.168 196.864,99.167 208.375 L 99.167 216.000 102.155 216.000 L 105.142 216.000 105.208 206.542 C 105.311 191.580,104.689 192.260,118.250 192.261 C 131.888 192.262,131.330 191.652,131.454 206.708 L 131.531 216.000 134.543 216.000 L 137.554 216.000 137.445 207.375 C 137.325 197.964,137.219 196.663,136.362 194.113 C 134.954 189.924,132.217 187.855,126.819 186.899 C 124.942 186.567,113.942 186.422,111.339 186.695 M151.434 187.025 C 142.086 187.848,139.750 190.792,139.750 201.750 C 139.750 210.229,141.086 213.435,145.418 215.351 C 149.585 217.195,166.131 217.270,171.290 215.469 C 174.094 214.490,176.375 211.626,176.741 208.625 L 176.857 207.667 173.970 207.667 L 171.083 207.668 170.778 208.410 C 169.773 210.854,167.525 211.364,157.667 211.384 C 146.018 211.409,145.965 211.366,145.868 201.958 C 145.766 192.118,145.484 192.331,158.640 192.336 C 169.928 192.341,171.175 192.838,171.367 197.417 C 171.439 199.141,172.502 199.000,159.391 199.000 L 148.000 199.000 148.000 201.589 L 148.000 204.178 161.708 204.131 C 177.153 204.077,176.139 204.167,176.871 202.788 C 177.206 202.157,177.241 201.875,177.210 200.083 C 177.043 190.717,174.404 187.792,165.417 187.011 C 163.064 186.806,153.807 186.815,151.434 187.025 M176.444 187.458 C 176.588 187.802,177.476 189.669,178.419 191.607 C 179.362 193.545,180.188 195.308,180.255 195.524 C 180.323 195.740,181.004 197.169,181.769 198.699 C 182.534 200.230,183.506 202.255,183.929 203.199 C 184.352 204.144,185.466 206.529,186.405 208.500 C 187.344 210.471,188.477 212.871,188.922 213.833 C 190.211 216.618,189.737 216.333,193.082 216.333 L 195.960 216.333 196.135 215.875 C 196.232 215.623,196.362 215.229,196.425 215.000 C 196.488 214.771,197.311 212.633,198.254 210.250 C 199.196 207.867,200.161 205.353,200.397 204.664 C 201.413 201.702,204.301 194.747,204.534 194.701 C 204.960 194.617,206.321 197.635,207.993 202.371 C 208.261 203.130,208.976 204.950,209.582 206.417 C 210.187 207.883,210.948 209.796,211.271 210.667 C 211.594 211.537,212.214 213.150,212.648 214.250 L 213.436 216.250 216.547 216.295 L 219.658 216.341 219.770 215.879 C 219.870 215.465,220.539 214.024,223.040 208.833 C 223.460 207.963,224.009 206.762,224.261 206.167 C 224.513 205.571,225.373 203.733,226.172 202.083 C 226.971 200.433,227.739 198.783,227.880 198.417 C 228.020 198.050,228.920 196.135,229.878 194.162 C 230.837 192.188,231.679 190.388,231.749 190.162 C 231.820 189.935,232.167 189.170,232.522 188.462 C 232.877 187.754,233.167 187.097,233.167 187.004 C 233.167 186.894,232.086 186.834,230.125 186.834 L 227.083 186.834 225.464 190.209 C 224.573 192.065,223.549 194.258,223.188 195.083 C 222.828 195.908,221.931 197.822,221.196 199.336 C 220.461 200.850,219.710 202.463,219.527 202.919 C 217.471 208.063,216.714 208.507,215.421 205.329 C 215.030 204.369,214.243 202.458,213.672 201.083 C 213.102 199.708,212.389 197.908,212.087 197.083 C 211.786 196.258,210.743 193.633,209.769 191.250 L 207.999 186.917 204.680 186.872 L 201.361 186.827 200.921 187.787 C 200.680 188.315,200.289 189.305,200.054 189.987 C 199.818 190.670,199.143 192.396,198.553 193.823 C 197.964 195.249,197.156 197.242,196.758 198.250 C 195.046 202.589,194.614 203.678,193.957 205.311 C 192.878 207.997,192.249 208.123,191.220 205.861 C 190.901 205.158,190.452 204.208,190.222 203.750 C 189.992 203.292,189.332 201.829,188.756 200.500 C 188.179 199.171,187.163 196.921,186.498 195.500 C 185.832 194.079,184.935 192.092,184.503 191.083 C 184.071 190.075,183.466 188.706,183.158 188.042 L 182.598 186.833 179.391 186.833 L 176.184 186.833 176.444 187.458 M244.833 186.944 C 234.695 187.653,232.000 190.780,232.000 201.833 C 232.000 211.141,234.103 214.855,240.017 215.994 C 245.062 216.967,254.984 217.086,259.955 216.235 C 260.759 216.097,261.717 215.943,262.083 215.892 C 267.619 215.126,270.419 208.961,269.696 199.129 C 269.047 190.293,266.611 187.820,257.750 187.003 C 256.116 186.852,246.758 186.809,244.833 186.944 M285.083 186.945 C 275.010 187.780,272.506 190.402,272.216 200.417 C 271.819 214.156,274.761 216.734,290.833 216.734 C 305.447 216.734,308.974 214.632,309.830 205.417 C 310.753 195.469,308.624 189.637,303.470 187.990 C 300.434 187.021,290.785 186.472,285.083 186.945 M259.755 192.579 C 263.224 193.243,263.750 194.395,263.750 201.333 C 263.750 210.864,263.260 211.230,250.500 211.243 C 238.519 211.256,238.275 211.062,238.259 201.500 C 238.242 192.162,237.962 192.368,250.694 192.347 C 256.898 192.336,258.730 192.383,259.755 192.579 M300.743 192.749 C 303.347 193.580,303.853 194.790,303.959 200.448 C 304.151 210.747,303.564 211.224,290.667 211.241 C 279.217 211.257,278.778 210.999,278.485 204.100 C 278.096 194.930,278.584 193.366,282.083 192.577 C 283.813 192.187,299.433 192.331,300.743 192.749 " stroke="none" fill="#ffffff" fill-rule="evenodd"/><path id="path1" d="M90.539 179.833 C 90.539 180.154,90.573 180.285,90.615 180.125 C 90.657 179.965,90.657 179.702,90.615 179.542 C 90.573 179.381,90.539 179.512,90.539 179.833 M97.158 180.958 L 96.583 181.583 97.208 181.009 C 97.790 180.474,97.910 180.333,97.783 180.333 C 97.755 180.333,97.474 180.615,97.158 180.958 M142.240 189.875 L 141.750 190.417 142.292 189.927 C 142.590 189.658,142.833 189.414,142.833 189.385 C 142.833 189.257,142.696 189.370,142.240 189.875 M231.730 202.000 C 231.730 203.054,231.757 203.485,231.790 202.958 C 231.823 202.431,231.823 201.569,231.790 201.042 C 231.757 200.515,231.730 200.946,231.730 202.000 M98.907 209.917 C 98.907 212.667,98.930 213.815,98.958 212.469 C 98.986 211.122,98.986 208.872,98.958 207.469 C 98.930 206.065,98.907 207.167,98.907 209.917 " stroke="none" fill="#112e54" fill-rule="evenodd"/><path id="path2" d="M0.000 199.917 L 0.000 399.833 200.000 399.833 L 400.000 399.833 400.000 199.917 L 400.000 0.000 200.000 0.000 L 0.000 0.000 0.000 199.917 M98.794 172.445 C 102.066 174.888,97.758 183.032,93.212 182.996 C 88.899 182.962,90.486 174.529,95.164 172.625 C 96.510 172.077,96.825 172.002,97.554 172.058 C 98.007 172.093,98.549 172.262,98.794 172.445 M350.292 190.542 C 350.220 208.431,350.124 209.481,348.309 212.359 C 345.920 216.144,339.269 217.597,327.034 217.005 C 315.159 216.430,312.514 214.051,312.076 203.551 C 311.627 192.764,313.935 188.528,321.006 187.158 C 324.543 186.472,335.689 186.284,339.708 186.842 L 341.167 187.044 341.167 190.117 L 341.167 193.189 340.792 193.069 C 340.585 193.003,340.154 192.875,339.833 192.785 C 339.512 192.695,336.141 192.587,332.341 192.546 C 319.253 192.404,318.916 192.580,318.721 199.667 C 318.418 210.692,318.958 211.151,332.000 210.948 C 339.735 210.828,341.156 210.570,342.503 209.040 C 343.806 207.560,343.739 208.507,343.795 190.875 L 343.845 175.167 347.100 175.167 L 350.355 175.167 350.292 190.542 M76.333 186.353 C 86.108 187.149,88.576 190.188,88.566 201.417 C 88.556 212.784,86.076 215.739,75.917 216.492 C 71.564 216.815,63.170 216.679,60.230 216.238 L 59.500 216.129 59.500 213.126 L 59.500 210.124 60.208 210.242 C 60.598 210.307,61.367 210.428,61.917 210.510 C 62.467 210.593,65.879 210.661,69.500 210.662 C 81.574 210.666,81.791 210.535,81.953 203.167 C 82.190 192.453,81.626 191.993,68.500 192.220 C 61.003 192.349,59.191 192.716,58.010 194.346 C 56.877 195.910,56.929 195.083,56.872 212.375 L 56.820 228.000 53.577 228.000 L 50.333 228.000 50.339 214.708 C 50.346 194.624,50.624 192.349,53.404 189.577 C 56.383 186.606,64.840 185.417,76.333 186.353 M126.740 186.574 C 132.733 187.547,135.846 190.198,137.024 195.333 C 137.372 196.848,137.427 198.436,137.561 210.625 L 137.623 216.333 134.407 216.333 L 131.191 216.333 131.122 206.792 C 131.015 191.875,131.500 192.417,118.250 192.417 C 105.025 192.417,105.500 191.860,105.500 207.360 L 105.500 216.333 102.167 216.333 L 98.833 216.333 98.844 211.375 C 98.885 192.915,99.840 189.881,106.386 187.432 C 109.618 186.222,121.488 185.722,126.740 186.574 M96.833 201.417 L 96.833 216.500 93.667 216.500 L 90.500 216.500 90.500 201.417 L 90.500 186.333 93.667 186.333 L 96.833 186.333 96.833 201.417 M166.917 186.831 C 173.880 187.792,176.299 190.040,177.248 196.432 C 177.899 200.810,177.504 203.203,176.006 203.958 L 175.263 204.333 161.465 204.333 L 147.667 204.333 147.667 201.500 L 147.667 198.667 159.163 198.667 L 170.659 198.667 170.909 198.285 C 171.456 197.450,170.680 194.819,169.610 193.879 C 168.309 192.737,166.497 192.507,158.746 192.503 C 146.445 192.497,146.137 192.686,146.027 200.306 C 145.875 210.872,146.095 211.077,157.583 211.072 C 167.643 211.067,169.799 210.545,170.671 207.903 L 170.859 207.333 174.036 207.333 L 177.212 207.333 177.104 208.124 C 176.099 215.450,170.329 217.740,154.731 217.003 C 142.500 216.425,139.698 213.898,139.385 203.161 C 139.022 190.678,141.747 187.363,153.000 186.602 C 154.864 186.476,165.628 186.653,166.917 186.831 M182.993 186.958 C 183.110 187.210,183.563 188.242,183.999 189.250 C 184.435 190.258,185.501 192.621,186.368 194.500 C 187.236 196.379,188.126 198.340,188.348 198.858 C 189.620 201.836,192.118 207.009,192.321 207.087 C 192.793 207.269,194.160 204.336,196.439 198.250 C 196.851 197.150,197.849 194.637,198.658 192.667 C 199.466 190.696,200.343 188.521,200.606 187.833 L 201.085 186.583 204.636 186.583 L 208.187 186.583 209.584 189.973 C 210.353 191.838,211.182 193.900,211.426 194.556 C 211.671 195.213,212.602 197.550,213.495 199.750 C 214.389 201.950,215.396 204.474,215.734 205.360 C 216.355 206.988,216.666 207.345,217.132 206.961 C 217.384 206.754,219.172 203.137,220.134 200.890 C 220.403 200.263,221.372 198.175,222.289 196.250 C 223.205 194.325,224.259 192.075,224.631 191.250 C 225.003 190.425,225.661 189.019,226.093 188.125 L 226.879 186.500 230.273 186.500 C 232.139 186.500,233.667 186.565,233.667 186.645 C 233.667 186.837,229.739 195.273,225.314 204.584 C 224.225 206.876,223.333 208.810,223.333 208.881 C 223.333 208.952,222.496 210.733,221.472 212.838 L 219.612 216.667 216.428 216.667 L 213.244 216.667 212.605 214.958 C 212.253 214.019,211.107 211.075,210.058 208.417 C 209.009 205.758,207.427 201.746,206.543 199.500 C 204.500 194.307,204.543 194.360,203.913 196.333 C 203.752 196.838,202.816 199.313,201.833 201.833 C 200.850 204.354,199.663 207.429,199.195 208.667 C 198.727 209.904,197.832 212.192,197.207 213.750 L 196.069 216.583 192.981 216.629 L 189.892 216.674 189.086 214.879 C 188.643 213.891,187.535 211.546,186.624 209.667 C 185.712 207.787,184.830 205.912,184.664 205.500 C 184.497 205.088,183.567 203.120,182.597 201.127 C 181.627 199.135,180.833 197.458,180.833 197.400 C 180.833 197.343,180.148 195.898,179.311 194.190 C 177.697 190.897,175.833 186.846,175.833 186.630 C 175.833 186.558,177.396 186.500,179.307 186.500 L 182.780 186.500 182.993 186.958 M259.810 186.903 C 267.517 188.068,269.745 191.077,269.952 200.603 C 270.236 213.583,267.564 216.385,254.306 217.013 C 235.821 217.888,231.780 215.164,231.785 201.833 C 231.788 190.563,234.362 187.443,244.287 186.678 C 247.372 186.440,257.743 186.590,259.810 186.903 M299.500 186.827 C 308.416 188.139,310.816 192.230,310.008 204.734 C 309.395 214.200,306.559 216.442,294.473 217.013 C 276.034 217.884,271.931 215.121,271.931 201.833 C 271.931 190.574,274.532 187.453,284.565 186.671 C 287.018 186.479,297.913 186.593,299.500 186.827 M243.199 192.679 C 238.876 193.240,238.583 193.789,238.583 201.333 C 238.583 211.019,238.753 211.144,251.661 210.949 C 263.206 210.775,263.636 210.400,263.451 200.668 C 263.297 192.599,263.112 192.480,250.671 192.521 C 247.139 192.533,243.777 192.604,243.199 192.679 M283.293 192.675 C 278.993 193.176,278.365 194.466,278.554 202.417 C 278.753 210.757,278.995 210.925,290.750 210.905 C 303.344 210.883,303.583 210.706,303.583 201.417 C 303.583 192.570,303.453 192.479,290.838 192.522 C 287.306 192.534,283.911 192.603,283.293 192.675 " stroke="none" fill="#012b5b" fill-rule="evenodd"/><path id="path3" d="" stroke="none" fill="#1c3250" fill-rule="evenodd"/><path id="path4" d="" stroke="none" fill="#2c364d" fill-rule="evenodd"/><path id="path5" d="" stroke="none" fill="#3c3b47" fill-rule="evenodd"/><path id="path6" d="M69.121 186.120 C 69.417 186.157,69.942 186.158,70.288 186.122 C 70.634 186.086,70.392 186.055,69.750 186.055 C 69.108 186.054,68.825 186.083,69.121 186.120 M96.747 201.500 C 96.747 209.796,96.767 213.190,96.792 209.042 C 96.816 204.894,96.816 198.106,96.792 193.958 C 96.767 189.810,96.747 193.204,96.747 201.500 M105.411 207.417 C 105.411 212.275,105.432 214.238,105.458 211.780 C 105.484 209.321,105.484 205.346,105.458 202.947 C 105.432 200.547,105.411 202.558,105.411 207.417 M263.567 201.333 C 263.567 202.754,263.593 203.335,263.624 202.625 C 263.655 201.915,263.655 200.752,263.624 200.042 C 263.593 199.331,263.567 199.912,263.567 201.333 M271.881 200.083 C 271.882 200.542,271.915 200.709,271.953 200.456 C 271.991 200.203,271.990 199.828,271.951 199.623 C 271.911 199.418,271.880 199.625,271.881 200.083 M303.731 201.417 C 303.732 202.608,303.758 203.074,303.790 202.451 C 303.823 201.829,303.822 200.854,303.790 200.285 C 303.757 199.716,303.731 200.225,303.731 201.417 M271.879 203.500 C 271.879 203.912,271.911 204.081,271.951 203.875 C 271.991 203.669,271.991 203.331,271.951 203.125 C 271.911 202.919,271.879 203.088,271.879 203.500 M98.881 215.583 C 98.882 216.042,98.915 216.209,98.953 215.956 C 98.991 215.703,98.990 215.328,98.951 215.123 C 98.911 214.918,98.880 215.125,98.881 215.583 " stroke="none" fill="#183e6b" fill-rule="evenodd"/><path id="path7" d="" stroke="none" fill="#523f44" fill-rule="evenodd"/><path id="path8" d="M113.708 186.282 C 113.869 186.323,114.131 186.323,114.292 186.282 C 114.452 186.240,114.321 186.205,114.000 186.205 C 113.679 186.205,113.548 186.240,113.708 186.282 M122.208 186.282 C 122.369 186.323,122.631 186.323,122.792 186.282 C 122.952 186.240,122.821 186.205,122.500 186.205 C 122.179 186.205,122.048 186.240,122.208 186.282 M154.294 186.618 C 154.501 186.658,154.801 186.656,154.960 186.615 C 155.120 186.573,154.950 186.540,154.583 186.542 C 154.217 186.544,154.086 186.578,154.294 186.618 M162.542 186.615 C 162.702 186.657,162.965 186.657,163.125 186.615 C 163.285 186.573,163.154 186.539,162.833 186.539 C 162.512 186.539,162.381 186.573,162.542 186.615 M246.625 186.618 C 246.831 186.657,247.169 186.657,247.375 186.618 C 247.581 186.578,247.412 186.545,247.000 186.545 C 246.588 186.545,246.419 186.578,246.625 186.618 M254.960 186.618 C 255.168 186.658,255.468 186.656,255.627 186.615 C 255.786 186.573,255.617 186.540,255.250 186.542 C 254.883 186.544,254.753 186.578,254.960 186.618 M286.794 186.618 C 287.001 186.658,287.301 186.656,287.460 186.615 C 287.620 186.573,287.450 186.540,287.083 186.542 C 286.717 186.544,286.586 186.578,286.794 186.618 M295.042 186.615 C 295.202 186.657,295.465 186.657,295.625 186.615 C 295.785 186.573,295.654 186.539,295.333 186.539 C 295.012 186.539,294.881 186.573,295.042 186.615 M326.960 186.618 C 327.168 186.658,327.468 186.656,327.627 186.615 C 327.786 186.573,327.617 186.540,327.250 186.542 C 326.883 186.544,326.753 186.578,326.960 186.618 M335.294 186.618 C 335.501 186.658,335.801 186.656,335.960 186.615 C 336.120 186.573,335.950 186.540,335.583 186.542 C 335.217 186.544,335.086 186.578,335.294 186.618 M312.065 201.750 C 312.065 202.942,312.092 203.407,312.124 202.785 C 312.156 202.162,312.156 201.187,312.123 200.618 C 312.091 200.049,312.064 200.558,312.065 201.750 M56.746 214.667 C 56.746 221.954,56.767 224.935,56.792 221.292 C 56.817 217.648,56.817 211.685,56.792 208.042 C 56.767 204.398,56.746 207.379,56.746 214.667 M157.714 217.123 C 158.245 217.157,159.070 217.156,159.548 217.123 C 160.026 217.089,159.592 217.062,158.583 217.062 C 157.575 217.063,157.184 217.090,157.714 217.123 M249.708 217.123 C 250.235 217.156,251.098 217.156,251.625 217.123 C 252.152 217.090,251.721 217.063,250.667 217.063 C 249.612 217.063,249.181 217.090,249.708 217.123 M289.875 217.123 C 290.402 217.156,291.265 217.156,291.792 217.123 C 292.319 217.090,291.887 217.063,290.833 217.063 C 289.779 217.063,289.348 217.090,289.875 217.123 M330.542 217.123 C 330.977 217.157,331.690 217.157,332.125 217.123 C 332.560 217.088,332.204 217.060,331.333 217.060 C 330.462 217.060,330.106 217.088,330.542 217.123 " stroke="none" fill="#244874" fill-rule="evenodd"/><path id="path9" d="M343.913 189.583 C 343.913 197.467,343.933 200.667,343.958 196.696 C 343.983 192.724,343.983 186.274,343.958 182.362 C 343.933 178.451,343.913 181.700,343.913 189.583 M238.404 201.083 C 238.404 203.008,238.428 203.773,238.458 202.783 C 238.487 201.792,238.487 200.217,238.458 199.283 C 238.428 198.348,238.404 199.158,238.404 201.083 M153.471 198.792 C 156.617 198.817,161.717 198.817,164.804 198.792 C 167.891 198.766,165.317 198.745,159.083 198.745 C 152.850 198.745,150.324 198.766,153.471 198.792 M350.232 201.667 C 350.232 202.904,350.258 203.410,350.290 202.792 C 350.322 202.173,350.322 201.160,350.290 200.542 C 350.258 199.923,350.232 200.429,350.232 201.667 M269.898 201.750 C 269.898 202.942,269.925 203.407,269.957 202.785 C 269.989 202.162,269.989 201.187,269.957 200.618 C 269.924 200.049,269.898 200.558,269.898 201.750 M50.410 208.333 C 50.410 212.596,50.432 214.340,50.458 212.208 C 50.485 210.077,50.485 206.590,50.458 204.458 C 50.432 202.327,50.410 204.071,50.410 208.333 M271.881 201.583 C 271.882 202.042,271.915 202.209,271.953 201.956 C 271.991 201.703,271.990 201.328,271.951 201.123 C 271.911 200.918,271.880 201.125,271.881 201.583 M59.569 213.167 C 59.569 214.771,59.594 215.427,59.624 214.625 C 59.655 213.823,59.655 212.510,59.624 211.708 C 59.594 210.906,59.569 211.563,59.569 213.167 M67.125 210.791 C 68.431 210.819,70.569 210.819,71.875 210.791 C 73.181 210.763,72.112 210.740,69.500 210.740 C 66.887 210.740,65.819 210.763,67.125 210.791 M162.042 211.115 C 162.202 211.157,162.465 211.157,162.625 211.115 C 162.785 211.073,162.654 211.039,162.333 211.039 C 162.012 211.039,161.881 211.073,162.042 211.115 M249.213 211.123 C 249.652 211.157,250.327 211.157,250.713 211.122 C 251.100 211.087,250.742 211.059,249.917 211.059 C 249.092 211.060,248.775 211.088,249.213 211.123 M289.380 211.123 C 289.818 211.157,290.493 211.157,290.880 211.122 C 291.267 211.087,290.908 211.059,290.083 211.059 C 289.258 211.060,288.942 211.088,289.380 211.123 M329.547 211.123 C 329.985 211.157,330.660 211.157,331.047 211.122 C 331.434 211.087,331.075 211.059,330.250 211.059 C 329.425 211.060,329.109 211.088,329.547 211.123 M266.740 213.708 L 266.250 214.250 266.792 213.760 C 267.297 213.304,267.410 213.167,267.281 213.167 C 267.252 213.167,267.009 213.410,266.740 213.708 M73.708 216.615 C 73.869 216.657,74.131 216.657,74.292 216.615 C 74.452 216.573,74.321 216.539,74.000 216.539 C 73.679 216.539,73.548 216.573,73.708 216.615 " stroke="none" fill="#2c5077" fill-rule="evenodd"/><path id="path10" d="" stroke="none" fill="#71463b" fill-rule="evenodd"/><path id="path11" d="M116.458 186.291 C 117.490 186.320,119.177 186.320,120.208 186.291 C 121.240 186.262,120.396 186.238,118.333 186.238 C 116.271 186.238,115.427 186.262,116.458 186.291 M117.292 192.290 C 117.865 192.323,118.802 192.323,119.375 192.290 C 119.948 192.258,119.479 192.231,118.333 192.231 C 117.188 192.231,116.719 192.258,117.292 192.290 M156.866 192.458 C 157.846 192.487,159.496 192.487,160.532 192.458 C 161.569 192.429,160.767 192.404,158.750 192.404 C 156.733 192.404,155.885 192.428,156.866 192.458 M249.042 192.458 C 250.119 192.487,251.881 192.487,252.958 192.458 C 254.035 192.429,253.154 192.405,251.000 192.405 C 248.846 192.405,247.965 192.429,249.042 192.458 M289.218 192.458 C 290.300 192.487,292.025 192.487,293.051 192.458 C 294.077 192.428,293.192 192.405,291.083 192.405 C 288.975 192.405,288.135 192.429,289.218 192.458 M329.384 192.458 C 330.467 192.487,332.192 192.487,333.218 192.458 C 334.244 192.428,333.358 192.405,331.250 192.405 C 329.142 192.405,328.302 192.429,329.384 192.458 M303.705 198.667 C 303.705 198.987,303.740 199.119,303.782 198.958 C 303.823 198.798,303.823 198.535,303.782 198.375 C 303.740 198.215,303.705 198.346,303.705 198.667 M139.379 200.000 C 139.379 200.412,139.411 200.581,139.451 200.375 C 139.491 200.169,139.491 199.831,139.451 199.625 C 139.411 199.419,139.379 199.588,139.379 200.000 M88.562 201.333 C 88.562 202.296,88.589 202.690,88.623 202.208 C 88.657 201.727,88.657 200.940,88.623 200.458 C 88.589 199.977,88.562 200.371,88.562 201.333 M99.067 202.417 C 99.067 203.792,99.093 204.332,99.124 203.617 C 99.155 202.903,99.155 201.778,99.124 201.117 C 99.092 200.457,99.066 201.042,99.067 202.417 M310.061 201.750 C 310.061 202.667,310.089 203.020,310.123 202.536 C 310.157 202.052,310.156 201.302,310.122 200.869 C 310.088 200.437,310.060 200.833,310.061 201.750 M139.375 203.583 C 139.377 203.950,139.411 204.080,139.451 203.873 C 139.491 203.666,139.490 203.366,139.448 203.206 C 139.406 203.047,139.374 203.217,139.375 203.583 M137.555 215.083 C 137.555 215.725,137.586 215.967,137.622 215.621 C 137.658 215.275,137.657 214.750,137.620 214.455 C 137.583 214.159,137.554 214.442,137.555 215.083 " stroke="none" fill="#3c5d81" fill-rule="evenodd"/><path id="path12" d="M157.051 186.624 C 158.041 186.654,159.616 186.654,160.551 186.624 C 161.485 186.595,160.675 186.570,158.750 186.571 C 156.825 186.571,156.060 186.595,157.051 186.624 M177.634 186.624 C 178.578 186.654,180.078 186.654,180.967 186.624 C 181.856 186.594,181.083 186.570,179.250 186.570 C 177.417 186.570,176.689 186.595,177.634 186.624 M202.958 186.624 C 203.898 186.654,205.435 186.654,206.375 186.624 C 207.315 186.595,206.546 186.570,204.667 186.570 C 202.787 186.570,202.019 186.595,202.958 186.624 M228.634 186.624 C 229.578 186.654,231.078 186.654,231.967 186.624 C 232.856 186.594,232.083 186.570,230.250 186.570 C 228.417 186.570,227.689 186.595,228.634 186.624 M249.384 186.624 C 250.374 186.654,251.949 186.654,252.884 186.624 C 253.819 186.595,253.008 186.570,251.083 186.571 C 249.158 186.571,248.394 186.595,249.384 186.624 M289.551 186.624 C 290.541 186.654,292.116 186.654,293.051 186.624 C 293.985 186.595,293.175 186.570,291.250 186.571 C 289.325 186.571,288.560 186.595,289.551 186.624 M329.717 186.624 C 330.708 186.654,332.283 186.654,333.217 186.624 C 334.152 186.595,333.342 186.570,331.417 186.571 C 329.492 186.571,328.727 186.595,329.717 186.624 M56.721 200.250 C 56.722 200.892,56.752 201.134,56.788 200.788 C 56.824 200.442,56.824 199.917,56.787 199.621 C 56.750 199.325,56.721 199.608,56.721 200.250 " stroke="none" fill="#476688" fill-rule="evenodd"/><path id="path13" d="" stroke="none" fill="#8e4d31" fill-rule="evenodd"/><path id="path14" d="M341.064 190.000 C 341.064 191.146,341.091 191.615,341.123 191.042 C 341.156 190.469,341.156 189.531,341.123 188.958 C 341.091 188.385,341.064 188.854,341.064 190.000 " stroke="none" fill="#506d8e" fill-rule="evenodd"/><path id="path15" d="M350.244 190.417 C 350.244 195.367,350.266 197.368,350.292 194.863 C 350.318 192.359,350.317 188.309,350.292 185.863 C 350.266 183.418,350.244 185.467,350.244 190.417 M131.244 207.750 C 131.244 212.333,131.265 214.184,131.292 211.863 C 131.318 209.542,131.318 205.792,131.292 203.530 C 131.265 201.268,131.244 203.167,131.244 207.750 " stroke="none" fill="#577392" fill-rule="evenodd"/><path id="path16" d="" stroke="none" fill="#a6542b" fill-rule="evenodd"/><path id="path17" d="M66.042 186.282 C 66.202 186.323,66.465 186.323,66.625 186.282 C 66.785 186.240,66.654 186.205,66.333 186.205 C 66.012 186.205,65.881 186.240,66.042 186.282 M139.385 201.750 C 139.386 202.300,139.417 202.505,139.454 202.205 C 139.491 201.906,139.490 201.456,139.452 201.205 C 139.414 200.955,139.384 201.200,139.385 201.750 M246.961 211.121 C 247.261 211.158,247.711 211.157,247.961 211.119 C 248.212 211.081,247.967 211.051,247.417 211.052 C 246.867 211.053,246.662 211.084,246.961 211.121 M252.128 211.121 C 252.428 211.158,252.878 211.157,253.128 211.119 C 253.378 211.081,253.133 211.051,252.583 211.052 C 252.033 211.053,251.828 211.084,252.128 211.121 M286.961 211.121 C 287.261 211.158,287.711 211.157,287.961 211.119 C 288.212 211.081,287.967 211.051,287.417 211.052 C 286.867 211.053,286.662 211.084,286.961 211.121 M292.128 211.121 C 292.428 211.158,292.878 211.157,293.128 211.119 C 293.378 211.081,293.133 211.051,292.583 211.052 C 292.033 211.053,291.828 211.084,292.128 211.121 M332.794 211.118 C 333.001 211.158,333.301 211.156,333.460 211.115 C 333.620 211.073,333.450 211.040,333.083 211.042 C 332.717 211.044,332.586 211.078,332.794 211.118 M65.708 216.619 C 65.960 216.658,66.373 216.658,66.625 216.619 C 66.877 216.581,66.671 216.550,66.167 216.550 C 65.662 216.550,65.456 216.581,65.708 216.619 M71.792 216.621 C 72.090 216.658,72.577 216.658,72.875 216.621 C 73.173 216.584,72.929 216.553,72.333 216.553 C 71.737 216.553,71.494 216.584,71.792 216.621 M191.533 216.624 C 192.331 216.654,193.681 216.655,194.533 216.624 C 195.386 216.594,194.733 216.569,193.083 216.569 C 191.433 216.569,190.736 216.593,191.533 216.624 M214.958 216.624 C 215.806 216.654,217.194 216.654,218.042 216.624 C 218.890 216.594,218.196 216.569,216.500 216.569 C 214.804 216.569,214.110 216.594,214.958 216.624 " stroke="none" fill="#617a98" fill-rule="evenodd"/><path id="path18" d="" stroke="none" fill="#c75c23" fill-rule="evenodd"/><path id="path19" d="M153.877 192.453 C 154.131 192.491,154.506 192.490,154.711 192.451 C 154.916 192.411,154.708 192.380,154.250 192.381 C 153.792 192.382,153.624 192.415,153.877 192.453 M162.960 192.451 C 163.168 192.491,163.468 192.490,163.627 192.448 C 163.786 192.406,163.617 192.374,163.250 192.375 C 162.883 192.377,162.753 192.411,162.960 192.451 M246.044 192.453 C 246.297 192.491,246.672 192.490,246.877 192.451 C 247.082 192.411,246.875 192.380,246.417 192.381 C 245.958 192.382,245.791 192.415,246.044 192.453 M255.125 192.451 C 255.331 192.491,255.669 192.491,255.875 192.451 C 256.081 192.411,255.912 192.379,255.500 192.379 C 255.088 192.379,254.919 192.411,255.125 192.451 M286.211 192.453 C 286.464 192.491,286.839 192.490,287.044 192.451 C 287.249 192.411,287.042 192.380,286.583 192.381 C 286.125 192.382,285.957 192.415,286.211 192.453 M295.292 192.451 C 295.498 192.491,295.835 192.491,296.042 192.451 C 296.248 192.411,296.079 192.379,295.667 192.379 C 295.254 192.379,295.085 192.411,295.292 192.451 M326.211 192.453 C 326.464 192.491,326.839 192.490,327.044 192.451 C 327.249 192.411,327.042 192.380,326.583 192.381 C 326.125 192.382,325.957 192.415,326.211 192.453 M335.458 192.451 C 335.665 192.491,336.002 192.491,336.208 192.451 C 336.415 192.411,336.246 192.379,335.833 192.379 C 335.421 192.379,335.252 192.411,335.458 192.451 M147.735 201.667 C 147.735 203.179,147.760 203.798,147.791 203.042 C 147.822 202.285,147.822 201.048,147.791 200.292 C 147.760 199.535,147.735 200.154,147.735 201.667 M99.074 210.000 C 99.074 212.704,99.097 213.810,99.125 212.458 C 99.153 211.106,99.153 208.894,99.125 207.542 C 99.097 206.190,99.074 207.296,99.074 210.000 M172.533 207.457 C 173.331 207.488,174.681 207.488,175.533 207.458 C 176.386 207.427,175.733 207.402,174.083 207.402 C 172.433 207.402,171.736 207.427,172.533 207.457 M50.408 222.500 C 50.408 225.387,50.430 226.569,50.458 225.125 C 50.486 223.681,50.486 221.319,50.458 219.875 C 50.430 218.431,50.408 219.612,50.408 222.500 " stroke="none" fill="#6f87a4" fill-rule="evenodd"/><path id="path20" d="" stroke="none" fill="#de611b" fill-rule="evenodd"/><path id="path21" d="M99.709 175.083 C 99.711 175.450,99.745 175.580,99.785 175.373 C 99.824 175.166,99.823 174.866,99.781 174.706 C 99.739 174.547,99.707 174.717,99.709 175.083 " stroke="none" fill="#ed6517" fill-rule="evenodd"/><path id="path22" d="M345.533 175.291 C 346.331 175.321,347.681 175.321,348.533 175.291 C 349.386 175.261,348.733 175.236,347.083 175.236 C 345.433 175.235,344.736 175.260,345.533 175.291 M350.236 178.333 C 350.236 180.029,350.261 180.723,350.291 179.875 C 350.321 179.027,350.321 177.640,350.291 176.792 C 350.261 175.944,350.236 176.637,350.236 178.333 M67.295 186.287 C 67.594 186.325,68.044 186.324,68.295 186.286 C 68.545 186.248,68.300 186.217,67.750 186.218 C 67.200 186.219,66.995 186.250,67.295 186.287 M71.208 186.286 C 71.460 186.324,71.873 186.324,72.125 186.286 C 72.377 186.248,72.171 186.217,71.667 186.217 C 71.162 186.217,70.956 186.248,71.208 186.286 M93.499 186.456 L 96.498 186.508 96.542 201.379 L 96.586 216.250 96.585 201.333 L 96.583 186.417 93.542 186.411 L 90.500 186.405 93.499 186.456 M69.042 192.124 C 69.844 192.155,71.156 192.155,71.958 192.124 C 72.760 192.094,72.104 192.069,70.500 192.069 C 68.896 192.069,68.240 192.094,69.042 192.124 M114.877 192.286 C 115.131 192.325,115.506 192.324,115.711 192.284 C 115.916 192.244,115.708 192.213,115.250 192.214 C 114.792 192.216,114.624 192.248,114.877 192.286 M120.958 192.284 C 121.165 192.324,121.502 192.324,121.708 192.284 C 121.915 192.245,121.746 192.212,121.333 192.212 C 120.921 192.212,120.752 192.245,120.958 192.284 M272.048 200.083 C 272.049 200.542,272.081 200.709,272.120 200.456 C 272.158 200.203,272.157 199.828,272.117 199.623 C 272.078 199.418,272.046 199.625,272.048 200.083 M272.045 203.500 C 272.045 203.912,272.078 204.081,272.118 203.875 C 272.157 203.669,272.157 203.331,272.118 203.125 C 272.078 202.919,272.045 203.088,272.045 203.500 M154.375 216.948 C 154.535 216.990,154.798 216.990,154.958 216.948 C 155.119 216.906,154.987 216.872,154.667 216.872 C 154.346 216.872,154.215 216.906,154.375 216.948 M286.542 216.948 C 286.702 216.990,286.965 216.990,287.125 216.948 C 287.285 216.906,287.154 216.872,286.833 216.872 C 286.512 216.872,286.381 216.906,286.542 216.948 M294.375 216.948 C 294.535 216.990,294.798 216.990,294.958 216.948 C 295.119 216.906,294.987 216.872,294.667 216.872 C 294.346 216.872,294.215 216.906,294.375 216.948 M326.708 216.948 C 326.869 216.990,327.131 216.990,327.292 216.948 C 327.452 216.906,327.321 216.872,327.000 216.872 C 326.679 216.872,326.548 216.906,326.708 216.948 " stroke="none" fill="#879bb3" fill-rule="evenodd"/><path id="path23" d="M96.500 172.397 C 93.756 172.978,90.832 176.851,90.834 179.901 C 90.835 181.959,92.370 183.116,94.272 182.495 C 99.861 180.670,101.941 171.244,96.500 172.397 " stroke="none" fill="#ff6a13" fill-rule="evenodd"/><path id="path24" d="M177.372 199.500 C 177.372 199.821,177.406 199.952,177.448 199.792 C 177.490 199.631,177.490 199.369,177.448 199.208 C 177.406 199.048,177.372 199.179,177.372 199.500 M263.731 201.250 C 263.732 202.442,263.758 202.907,263.790 202.285 C 263.823 201.662,263.822 200.687,263.790 200.118 C 263.757 199.549,263.731 200.058,263.731 201.250 M303.898 201.417 C 303.898 202.608,303.925 203.074,303.957 202.451 C 303.989 201.829,303.989 200.854,303.957 200.285 C 303.924 199.716,303.898 200.225,303.898 201.417 M105.244 207.917 C 105.244 212.500,105.265 214.351,105.292 212.030 C 105.318 209.709,105.318 205.959,105.292 203.697 C 105.265 201.434,105.244 203.333,105.244 207.917 M231.896 201.667 C 231.896 202.721,231.923 203.152,231.956 202.625 C 231.990 202.098,231.990 201.235,231.956 200.708 C 231.923 200.181,231.896 200.612,231.896 201.667 M253.960 211.118 C 254.168 211.158,254.468 211.156,254.627 211.115 C 254.786 211.073,254.617 211.040,254.250 211.042 C 253.883 211.044,253.753 211.078,253.960 211.118 M294.127 211.118 C 294.334 211.158,294.634 211.156,294.794 211.115 C 294.953 211.073,294.783 211.040,294.417 211.042 C 294.050 211.044,293.920 211.078,294.127 211.118 M334.127 211.118 C 334.334 211.158,334.634 211.156,334.794 211.115 C 334.953 211.073,334.783 211.040,334.417 211.042 C 334.050 211.044,333.920 211.078,334.127 211.118 M314.667 213.219 C 314.667 213.248,314.910 213.491,315.208 213.760 L 315.750 214.250 315.260 213.708 C 314.804 213.203,314.667 213.090,314.667 213.219 M68.132 216.624 C 68.708 216.656,69.608 216.656,70.132 216.623 C 70.655 216.590,70.183 216.563,69.083 216.564 C 67.983 216.564,67.555 216.591,68.132 216.624 " stroke="none" fill="#98a8bc" fill-rule="evenodd"/><path id="path25" d="M69.208 186.286 C 69.460 186.324,69.873 186.324,70.125 186.286 C 70.377 186.248,70.171 186.217,69.667 186.217 C 69.162 186.217,68.956 186.248,69.208 186.286 M82.068 202.250 C 82.068 203.808,82.093 204.468,82.124 203.717 C 82.155 202.965,82.155 201.690,82.124 200.883 C 82.094 200.077,82.068 200.692,82.068 202.250 M312.232 201.833 C 312.232 203.071,312.258 203.577,312.290 202.958 C 312.322 202.340,312.322 201.327,312.290 200.708 C 312.258 200.090,312.232 200.596,312.232 201.833 M272.053 201.833 C 272.053 202.429,272.084 202.673,272.121 202.375 C 272.158 202.077,272.158 201.590,272.121 201.292 C 272.084 200.994,272.053 201.237,272.053 201.833 M155.875 211.291 C 156.585 211.322,157.748 211.322,158.458 211.291 C 159.169 211.259,158.587 211.234,157.167 211.234 C 155.746 211.234,155.165 211.259,155.875 211.291 M99.039 215.500 C 99.039 215.821,99.073 215.952,99.115 215.792 C 99.157 215.631,99.157 215.369,99.115 215.208 C 99.073 215.048,99.039 215.179,99.039 215.500 M100.625 216.291 C 101.473 216.321,102.860 216.321,103.708 216.291 C 104.556 216.261,103.862 216.236,102.167 216.236 C 100.471 216.236,99.777 216.261,100.625 216.291 M132.958 216.291 C 133.806 216.321,135.194 216.321,136.042 216.291 C 136.890 216.261,136.196 216.236,134.500 216.236 C 132.804 216.236,132.110 216.261,132.958 216.291 M155.544 216.953 C 155.797 216.991,156.172 216.990,156.377 216.951 C 156.582 216.911,156.375 216.880,155.917 216.881 C 155.458 216.882,155.291 216.915,155.544 216.953 M247.458 216.951 C 247.665 216.991,248.002 216.991,248.208 216.951 C 248.415 216.911,248.246 216.879,247.833 216.879 C 247.421 216.879,247.252 216.911,247.458 216.951 M252.960 216.951 C 253.168 216.991,253.468 216.990,253.627 216.948 C 253.786 216.906,253.617 216.874,253.250 216.875 C 252.883 216.877,252.753 216.911,252.960 216.951 M287.794 216.951 C 288.001 216.991,288.301 216.990,288.460 216.948 C 288.620 216.906,288.450 216.874,288.083 216.875 C 287.717 216.877,287.586 216.911,287.794 216.951 M293.125 216.951 C 293.331 216.991,293.669 216.991,293.875 216.951 C 294.081 216.911,293.912 216.879,293.500 216.879 C 293.087 216.879,292.919 216.911,293.125 216.951 M52.033 227.957 C 52.831 227.988,54.181 227.988,55.033 227.958 C 55.886 227.927,55.233 227.902,53.583 227.902 C 51.933 227.902,51.236 227.927,52.033 227.957 " stroke="none" fill="#a8b6c7" fill-rule="evenodd"/><path id="path26" d="M154.294 186.785 C 154.501 186.824,154.801 186.823,154.960 186.781 C 155.120 186.739,154.950 186.707,154.583 186.709 C 154.217 186.711,154.086 186.745,154.294 186.785 M162.627 186.785 C 162.834 186.824,163.134 186.823,163.294 186.781 C 163.453 186.739,163.283 186.707,162.917 186.709 C 162.550 186.711,162.420 186.745,162.627 186.785 M246.625 186.784 C 246.831 186.824,247.169 186.824,247.375 186.784 C 247.581 186.745,247.412 186.712,247.000 186.712 C 246.588 186.712,246.419 186.745,246.625 186.784 M254.960 186.785 C 255.168 186.824,255.468 186.823,255.627 186.781 C 255.786 186.739,255.617 186.707,255.250 186.709 C 254.883 186.711,254.753 186.745,254.960 186.785 M286.794 186.785 C 287.001 186.824,287.301 186.823,287.460 186.781 C 287.620 186.739,287.450 186.707,287.083 186.709 C 286.717 186.711,286.586 186.745,286.794 186.785 M295.127 186.785 C 295.334 186.824,295.634 186.823,295.794 186.781 C 295.953 186.739,295.783 186.707,295.417 186.709 C 295.050 186.711,294.920 186.745,295.127 186.785 M326.960 186.785 C 327.168 186.824,327.468 186.823,327.627 186.781 C 327.786 186.739,327.617 186.707,327.250 186.709 C 326.883 186.711,326.753 186.745,326.960 186.785 M335.294 186.785 C 335.501 186.824,335.801 186.823,335.960 186.781 C 336.120 186.739,335.950 186.707,335.583 186.709 C 335.217 186.711,335.086 186.745,335.294 186.785 M303.872 198.667 C 303.872 198.987,303.906 199.119,303.948 198.958 C 303.990 198.798,303.990 198.535,303.948 198.375 C 303.906 198.215,303.872 198.346,303.872 198.667 M56.579 214.667 C 56.579 221.954,56.600 224.935,56.625 221.292 C 56.650 217.648,56.650 211.685,56.625 208.042 C 56.600 204.398,56.579 207.379,56.579 214.667 M303.872 204.000 C 303.872 204.321,303.906 204.452,303.948 204.292 C 303.990 204.131,303.990 203.869,303.948 203.708 C 303.906 203.548,303.872 203.679,303.872 204.000 " stroke="none" fill="#b7c3d1" fill-rule="evenodd"/><path id="path27" d="M344.080 189.667 C 344.080 197.504,344.100 200.710,344.125 196.792 C 344.150 192.873,344.150 186.460,344.125 182.542 C 344.100 178.623,344.080 181.829,344.080 189.667 M116.366 186.458 C 117.346 186.487,118.996 186.487,120.032 186.458 C 121.069 186.429,120.267 186.404,118.250 186.404 C 116.233 186.404,115.385 186.428,116.366 186.458 M66.377 192.120 C 66.631 192.158,67.006 192.157,67.211 192.117 C 67.416 192.078,67.208 192.046,66.750 192.048 C 66.292 192.049,66.124 192.081,66.377 192.120 M73.875 192.115 C 74.035 192.157,74.298 192.157,74.458 192.115 C 74.619 192.073,74.487 192.039,74.167 192.039 C 73.846 192.039,73.715 192.073,73.875 192.115 M153.542 198.958 C 156.635 198.984,161.698 198.984,164.792 198.958 C 167.885 198.933,165.354 198.912,159.167 198.912 C 152.979 198.912,150.448 198.933,153.542 198.958 M139.545 200.000 C 139.545 200.412,139.578 200.581,139.618 200.375 C 139.657 200.169,139.657 199.831,139.618 199.625 C 139.578 199.419,139.545 199.588,139.545 200.000 M278.390 200.583 C 278.391 201.317,278.420 201.596,278.456 201.204 C 278.491 200.812,278.490 200.212,278.454 199.871 C 278.419 199.529,278.390 199.850,278.390 200.583 M88.394 201.417 C 88.395 202.333,88.423 202.687,88.456 202.203 C 88.490 201.718,88.490 200.968,88.456 200.536 C 88.421 200.104,88.394 200.500,88.394 201.417 M137.398 202.000 C 137.398 203.146,137.424 203.615,137.457 203.042 C 137.489 202.469,137.489 201.531,137.457 200.958 C 137.424 200.385,137.398 200.854,137.398 202.000 M139.545 203.500 C 139.545 203.912,139.578 204.081,139.618 203.875 C 139.657 203.669,139.657 203.331,139.618 203.125 C 139.578 202.919,139.545 203.088,139.545 203.500 M157.542 216.956 C 158.069 216.990,158.931 216.990,159.458 216.956 C 159.985 216.923,159.554 216.896,158.500 216.896 C 157.446 216.896,157.015 216.923,157.542 216.956 M249.708 216.956 C 250.235 216.990,251.098 216.990,251.625 216.956 C 252.152 216.923,251.721 216.896,250.667 216.896 C 249.612 216.896,249.181 216.923,249.708 216.956 M289.875 216.956 C 290.402 216.990,291.265 216.990,291.792 216.956 C 292.319 216.923,291.887 216.896,290.833 216.896 C 289.779 216.896,289.348 216.923,289.875 216.956 M329.965 216.957 C 330.541 216.990,331.441 216.989,331.965 216.956 C 332.488 216.923,332.017 216.897,330.917 216.897 C 329.817 216.897,329.388 216.924,329.965 216.957 " stroke="none" fill="#c3cdd8" fill-rule="evenodd"/><path id="path28" d="M157.051 186.791 C 158.041 186.821,159.616 186.821,160.551 186.791 C 161.485 186.761,160.675 186.737,158.750 186.737 C 156.825 186.737,156.060 186.762,157.051 186.791 M176.109 186.792 C 176.066 186.860,177.018 186.897,178.224 186.873 C 182.211 186.795,182.627 186.732,179.385 186.699 C 177.626 186.681,176.151 186.723,176.109 186.792 M202.958 186.791 C 203.898 186.821,205.435 186.821,206.375 186.791 C 207.315 186.761,206.546 186.737,204.667 186.737 C 202.787 186.737,202.019 186.761,202.958 186.791 M228.542 186.791 C 229.435 186.821,230.898 186.821,231.792 186.791 C 232.685 186.761,231.954 186.736,230.167 186.736 C 228.379 186.736,227.648 186.761,228.542 186.791 M249.375 186.791 C 250.360 186.821,251.973 186.821,252.958 186.791 C 253.944 186.762,253.137 186.737,251.167 186.737 C 249.196 186.737,248.390 186.762,249.375 186.791 M289.551 186.791 C 290.541 186.821,292.116 186.821,293.051 186.791 C 293.985 186.761,293.175 186.737,291.250 186.737 C 289.325 186.737,288.560 186.762,289.551 186.791 M329.717 186.791 C 330.708 186.821,332.283 186.821,333.217 186.791 C 334.152 186.761,333.342 186.737,331.417 186.737 C 329.492 186.737,328.727 186.762,329.717 186.791 M145.906 201.333 C 145.906 203.762,145.929 204.756,145.958 203.542 C 145.986 202.327,145.986 200.340,145.958 199.125 C 145.929 197.910,145.906 198.904,145.906 201.333 M318.570 201.000 C 318.570 202.879,318.595 203.648,318.624 202.708 C 318.654 201.769,318.654 200.231,318.624 199.292 C 318.595 198.352,318.570 199.121,318.570 201.000 M238.237 201.083 C 238.237 202.917,238.261 203.689,238.291 202.801 C 238.321 201.912,238.321 200.412,238.291 199.467 C 238.261 198.523,238.237 199.250,238.237 201.083 M56.556 200.167 C 56.556 200.854,56.585 201.135,56.621 200.792 C 56.657 200.448,56.657 199.885,56.621 199.542 C 56.585 199.198,56.556 199.479,56.556 200.167 M350.065 201.667 C 350.065 202.904,350.092 203.410,350.124 202.792 C 350.156 202.173,350.156 201.160,350.124 200.542 C 350.092 199.923,350.065 200.429,350.065 201.667 M177.375 200.750 C 177.377 201.117,177.411 201.247,177.451 201.040 C 177.491 200.832,177.490 200.532,177.448 200.373 C 177.406 200.214,177.374 200.383,177.375 200.750 M67.052 210.958 C 68.410 210.986,70.585 210.986,71.885 210.958 C 73.186 210.930,72.075 210.907,69.417 210.907 C 66.758 210.907,65.694 210.930,67.052 210.958 M91.958 216.458 C 92.806 216.488,94.194 216.488,95.042 216.458 C 95.890 216.427,95.196 216.403,93.500 216.403 C 91.804 216.403,91.110 216.427,91.958 216.458 " stroke="none" fill="#cfd7e0" fill-rule="evenodd"/><path id="path29" d="M350.078 190.500 C 350.078 195.496,350.099 197.540,350.125 195.042 C 350.151 192.544,350.151 188.456,350.125 185.958 C 350.099 183.460,350.078 185.504,350.078 190.500 M65.960 186.451 C 66.168 186.491,66.468 186.490,66.627 186.448 C 66.786 186.406,66.617 186.374,66.250 186.375 C 65.883 186.377,65.753 186.411,65.960 186.451 M82.045 198.833 C 82.045 199.246,82.078 199.415,82.118 199.208 C 82.157 199.002,82.157 198.665,82.118 198.458 C 82.078 198.252,82.045 198.421,82.045 198.833 M50.545 199.833 C 50.545 200.246,50.578 200.415,50.618 200.208 C 50.657 200.002,50.657 199.665,50.618 199.458 C 50.578 199.252,50.545 199.421,50.545 199.833 M131.411 207.917 C 131.411 212.500,131.432 214.351,131.458 212.030 C 131.484 209.709,131.484 205.959,131.458 203.697 C 131.432 201.434,131.411 203.333,131.411 207.917 M318.539 204.833 C 318.539 205.154,318.573 205.285,318.615 205.125 C 318.657 204.965,318.657 204.702,318.615 204.542 C 318.573 204.381,318.539 204.512,318.539 204.833 M63.875 210.948 C 64.035 210.990,64.298 210.990,64.458 210.948 C 64.619 210.906,64.487 210.872,64.167 210.872 C 63.846 210.872,63.715 210.906,63.875 210.948 M74.375 210.948 C 74.535 210.990,74.798 210.990,74.958 210.948 C 75.119 210.906,74.987 210.872,74.667 210.872 C 74.346 210.872,74.215 210.906,74.375 210.948 M153.211 211.286 C 153.464 211.325,153.839 211.324,154.044 211.284 C 154.249 211.244,154.042 211.213,153.583 211.214 C 153.125 211.216,152.957 211.248,153.211 211.286 M160.295 211.287 C 160.594 211.325,161.044 211.324,161.295 211.286 C 161.545 211.248,161.300 211.217,160.750 211.218 C 160.200 211.219,159.995 211.250,160.295 211.287 M64.375 216.448 C 64.535 216.490,64.798 216.490,64.958 216.448 C 65.119 216.406,64.987 216.372,64.667 216.372 C 64.346 216.372,64.215 216.406,64.375 216.448 M73.708 216.448 C 73.869 216.490,74.131 216.490,74.292 216.448 C 74.452 216.406,74.321 216.372,74.000 216.372 C 73.679 216.372,73.548 216.406,73.708 216.448 " stroke="none" fill="#d9dfe6" fill-rule="evenodd"/><path id="path30" d="M350.042 180.917 C 350.044 181.283,350.078 181.414,350.118 181.206 C 350.158 180.999,350.156 180.699,350.115 180.540 C 350.073 180.380,350.040 180.550,350.042 180.917 M82.039 197.667 C 82.039 197.987,82.073 198.119,82.115 197.958 C 82.157 197.798,82.157 197.535,82.115 197.375 C 82.073 197.215,82.039 197.346,82.039 197.667 M147.910 201.625 L 147.917 204.250 161.167 204.251 L 174.417 204.253 161.213 204.209 L 148.008 204.165 147.956 201.582 L 147.904 199.000 147.910 201.625 M50.580 214.167 C 50.580 221.729,50.600 224.823,50.625 221.042 C 50.650 217.260,50.650 211.073,50.625 207.292 C 50.600 203.510,50.580 206.604,50.580 214.167 M139.552 201.750 C 139.553 202.300,139.584 202.505,139.621 202.205 C 139.658 201.906,139.657 201.456,139.619 201.205 C 139.581 200.955,139.551 201.200,139.552 201.750 M151.792 211.284 C 151.998 211.324,152.335 211.324,152.542 211.284 C 152.748 211.245,152.579 211.212,152.167 211.212 C 151.754 211.212,151.585 211.245,151.792 211.284 M162.125 211.287 C 162.423 211.324,162.910 211.324,163.208 211.287 C 163.506 211.250,163.262 211.220,162.667 211.220 C 162.071 211.220,161.827 211.250,162.125 211.287 M248.032 211.291 C 249.013 211.320,250.663 211.320,251.699 211.291 C 252.735 211.262,251.933 211.238,249.917 211.238 C 247.900 211.238,247.052 211.262,248.032 211.291 M288.199 211.291 C 289.179 211.320,290.829 211.320,291.866 211.291 C 292.902 211.262,292.100 211.238,290.083 211.238 C 288.067 211.238,287.219 211.262,288.199 211.291 M328.366 211.291 C 329.346 211.320,330.996 211.320,332.032 211.291 C 333.069 211.262,332.267 211.238,330.250 211.238 C 328.233 211.238,327.385 211.262,328.366 211.291 M346.906 213.542 L 346.417 214.083 346.958 213.594 C 347.463 213.138,347.577 213.000,347.448 213.000 C 347.419 213.000,347.175 213.244,346.906 213.542 M61.875 216.282 C 62.035 216.323,62.298 216.323,62.458 216.282 C 62.619 216.240,62.487 216.205,62.167 216.205 C 61.846 216.205,61.715 216.240,61.875 216.282 M76.208 216.282 C 76.369 216.323,76.631 216.323,76.792 216.282 C 76.952 216.240,76.821 216.205,76.500 216.205 C 76.179 216.205,76.048 216.240,76.208 216.282 M65.625 216.454 C 65.923 216.491,66.410 216.491,66.708 216.454 C 67.006 216.417,66.762 216.387,66.167 216.387 C 65.571 216.387,65.327 216.417,65.625 216.454 M71.708 216.455 C 72.052 216.491,72.615 216.491,72.958 216.455 C 73.302 216.419,73.021 216.389,72.333 216.389 C 71.646 216.389,71.365 216.419,71.708 216.455 M191.533 216.457 C 192.331 216.488,193.681 216.488,194.533 216.458 C 195.386 216.427,194.733 216.402,193.083 216.402 C 191.433 216.402,190.736 216.427,191.533 216.457 M214.958 216.458 C 215.806 216.488,217.194 216.488,218.042 216.458 C 218.890 216.427,218.196 216.403,216.500 216.403 C 214.804 216.403,214.110 216.427,214.958 216.458 M154.208 216.782 C 154.369 216.823,154.631 216.823,154.792 216.782 C 154.952 216.740,154.821 216.705,154.500 216.705 C 154.179 216.705,154.048 216.740,154.208 216.782 M246.375 216.782 C 246.535 216.823,246.798 216.823,246.958 216.782 C 247.119 216.740,246.987 216.705,246.667 216.705 C 246.346 216.705,246.215 216.740,246.375 216.782 M294.542 216.782 C 294.702 216.823,294.965 216.823,295.125 216.782 C 295.285 216.740,295.154 216.705,294.833 216.705 C 294.512 216.705,294.381 216.740,294.542 216.782 M326.542 216.782 C 326.702 216.823,326.965 216.823,327.125 216.782 C 327.285 216.740,327.154 216.705,326.833 216.705 C 326.512 216.705,326.381 216.740,326.542 216.782 M334.708 216.782 C 334.869 216.823,335.131 216.823,335.292 216.782 C 335.452 216.740,335.321 216.705,335.000 216.705 C 334.679 216.705,334.548 216.740,334.708 216.782 " stroke="none" fill="#e7ebef" fill-rule="evenodd"/><path id="path31" d="M345.466 175.457 C 346.227 175.488,347.427 175.488,348.133 175.457 C 348.839 175.426,348.217 175.401,346.750 175.401 C 345.283 175.401,344.706 175.427,345.466 175.457 M350.064 178.417 C 350.064 179.517,350.091 179.945,350.124 179.368 C 350.156 178.792,350.156 177.892,350.123 177.368 C 350.090 176.845,350.063 177.317,350.064 178.417 M275.073 190.042 L 274.583 190.583 275.125 190.094 C 275.630 189.638,275.743 189.500,275.615 189.500 C 275.586 189.500,275.342 189.744,275.073 190.042 M315.073 190.208 L 314.583 190.750 315.125 190.260 C 315.630 189.804,315.743 189.667,315.615 189.667 C 315.586 189.667,315.342 189.910,315.073 190.208 M150.958 192.451 C 151.165 192.491,151.502 192.491,151.708 192.451 C 151.915 192.411,151.746 192.379,151.333 192.379 C 150.921 192.379,150.752 192.411,150.958 192.451 M165.627 192.451 C 165.834 192.491,166.134 192.490,166.294 192.448 C 166.453 192.406,166.283 192.374,165.917 192.375 C 165.550 192.377,165.420 192.411,165.627 192.451 M243.127 192.451 C 243.334 192.491,243.634 192.490,243.794 192.448 C 243.953 192.406,243.783 192.374,243.417 192.375 C 243.050 192.377,242.920 192.411,243.127 192.451 M257.960 192.451 C 258.168 192.491,258.468 192.490,258.627 192.448 C 258.786 192.406,258.617 192.374,258.250 192.375 C 257.883 192.377,257.753 192.411,257.960 192.451 M283.292 192.451 C 283.498 192.491,283.835 192.491,284.042 192.451 C 284.248 192.411,284.079 192.379,283.667 192.379 C 283.254 192.379,283.085 192.411,283.292 192.451 M298.127 192.451 C 298.334 192.491,298.634 192.490,298.794 192.448 C 298.953 192.406,298.783 192.374,298.417 192.375 C 298.050 192.377,297.920 192.411,298.127 192.451 M323.458 192.451 C 323.665 192.491,324.002 192.491,324.208 192.451 C 324.415 192.411,324.246 192.379,323.833 192.379 C 323.421 192.379,323.252 192.411,323.458 192.451 M338.208 192.448 C 338.369 192.490,338.631 192.490,338.792 192.448 C 338.952 192.406,338.821 192.372,338.500 192.372 C 338.179 192.372,338.048 192.406,338.208 192.448 M50.718 198.083 C 50.719 198.633,50.750 198.838,50.787 198.539 C 50.825 198.239,50.824 197.789,50.786 197.539 C 50.748 197.288,50.717 197.533,50.718 198.083 M177.209 199.583 C 177.211 199.950,177.245 200.080,177.285 199.873 C 177.324 199.666,177.323 199.366,177.281 199.206 C 177.239 199.047,177.207 199.217,177.209 199.583 M82.235 202.333 C 82.235 203.846,82.260 204.465,82.291 203.708 C 82.322 202.952,82.322 201.715,82.291 200.958 C 82.260 200.202,82.235 200.821,82.235 202.333 M173.864 207.625 C 176.490 207.669,176.819 207.706,176.886 207.962 C 176.941 208.174,176.966 208.151,176.981 207.875 L 177.000 207.500 173.958 207.538 L 170.917 207.575 173.864 207.625 M245.542 211.282 C 245.702 211.323,245.965 211.323,246.125 211.282 C 246.285 211.240,246.154 211.205,245.833 211.205 C 245.512 211.205,245.381 211.240,245.542 211.282 M253.877 211.286 C 254.131 211.325,254.506 211.324,254.711 211.284 C 254.916 211.244,254.708 211.213,254.250 211.214 C 253.792 211.216,253.624 211.248,253.877 211.286 M285.627 211.285 C 285.834 211.324,286.134 211.323,286.294 211.281 C 286.453 211.239,286.283 211.207,285.917 211.209 C 285.550 211.211,285.420 211.245,285.627 211.285 M294.044 211.286 C 294.297 211.325,294.672 211.324,294.877 211.284 C 295.082 211.244,294.875 211.213,294.417 211.214 C 293.958 211.216,293.791 211.248,294.044 211.286 M325.794 211.285 C 326.001 211.324,326.301 211.323,326.460 211.281 C 326.620 211.239,326.450 211.207,326.083 211.209 C 325.717 211.211,325.586 211.245,325.794 211.285 M334.211 211.286 C 334.464 211.325,334.839 211.324,335.044 211.284 C 335.249 211.244,335.042 211.213,334.583 211.214 C 334.125 211.216,333.957 211.248,334.211 211.286 M155.792 211.457 C 156.548 211.488,157.785 211.488,158.542 211.457 C 159.298 211.426,158.679 211.401,157.167 211.401 C 155.654 211.401,155.035 211.426,155.792 211.457 M306.658 213.625 L 306.083 214.250 306.708 213.676 C 307.052 213.360,307.333 213.078,307.333 213.051 C 307.333 212.923,307.192 213.043,306.658 213.625 M301.500 216.000 C 301.165 216.107,301.149 216.134,301.417 216.138 C 301.600 216.141,301.900 216.079,302.083 216.000 C 302.508 215.817,302.070 215.817,301.500 216.000 M60.542 216.115 C 60.702 216.157,60.965 216.157,61.125 216.115 C 61.285 216.073,61.154 216.039,60.833 216.039 C 60.512 216.039,60.381 216.073,60.542 216.115 M77.708 216.115 C 77.869 216.157,78.131 216.157,78.292 216.115 C 78.452 216.073,78.321 216.039,78.000 216.039 C 77.679 216.039,77.548 216.073,77.708 216.115 M100.625 216.124 C 101.473 216.154,102.860 216.154,103.708 216.124 C 104.556 216.094,103.862 216.069,102.167 216.069 C 100.471 216.069,99.777 216.094,100.625 216.124 M132.958 216.124 C 133.806 216.154,135.194 216.154,136.042 216.124 C 136.890 216.094,136.196 216.069,134.500 216.069 C 132.804 216.069,132.110 216.094,132.958 216.124 M68.125 216.457 C 68.698 216.489,69.635 216.489,70.208 216.457 C 70.781 216.424,70.313 216.398,69.167 216.398 C 68.021 216.398,67.552 216.424,68.125 216.457 M52.033 227.791 C 52.831 227.821,54.181 227.821,55.033 227.791 C 55.886 227.761,55.233 227.736,53.583 227.736 C 51.933 227.735,51.236 227.760,52.033 227.791 " stroke="none" fill="#f7f8f9" fill-rule="evenodd"/></g></svg>